<svg id="74ad5bb7-fdcd-4b2d-be88-4cebbebfa027" data-name="Layer 1" xmlns="http://www.w3.org/2000/svg" xmlns:xlink="http://www.w3.org/1999/xlink" width="500" height="300" viewBox="0 0 1057.7 784.98"><defs><linearGradient id="3bf67c77-6062-4f06-9d7e-238f26074c0d" x1="534.38" y1="800.56" x2="534.38" y2="118" gradientUnits="userSpaceOnUse"><stop offset="0" stop-color="grey" stop-opacity="0.25"/><stop offset="0.5" stop-color="grey" stop-opacity="0.12"/><stop offset="1" stop-color="grey" stop-opacity="0.1"/></linearGradient></defs><title>Ride a bicycle</title><path d="M 313.9 191.9 c -5.5 6.7 -7.6 16 -9.9 24.8 c -19 70.8 -65.8 127.8 -119.1 168.5 c -22.6 17.2 -50.1 40.4 -45.1 71.3 c 2.7 16.6 14.3 28.8 23 42.3 c 18.2 28.3 24.1 66.8 15.4 100.7 c -9.9 38.6 -37.4 74.5 -28.9 113.5 c 5.3 24 23.1 41.1 40.3 55.8 q 40.2 34.3 82.9 64.3 c 19.1 13.4 39.4 26.4 61.7 28.1 c 19.6 1.5 38.8 -6 57.4 -13.3 c 16.3 -6.4 32.9 -13.1 46.1 -26 c 8.6 -8.4 15.4 -19.3 24.9 -26.1 c 22.4 -16.2 51.1 -5.9 76.7 1 c 60.5 16.2 125.3 10.3 182.8 -16.7 c 88.3 -41.5 155.6 -128.6 242 -175.4 c 37.1 -20.1 77.5 -32.6 111.9 -58.5 C 1095.3 531.5 1112 513.4 1125.1 493 c 26 -40.1 40.1 -91.3 36 -141.3 s -26.8 -98.3 -62.5 -126.6 c -38.3 -30.3 -86.6 -35.9 -130.1 -54.1 c -44.9 -18.8 -84.9 -51 -129.4 -71.1 C 766.1 67 682.2 68.9 610.8 105 C 562.4 129.5 513.3 186.7 459.3 191 C 420.9 194 343.9 155.5 313.9 191.9 Z" transform="matrix(1,0,0,1,-71.2,-57.5)" fill="#6c63ff" opacity="0.1"/><path d="M 913.3 505.8 s 17.5 34.4 3.2 53.1 s 1.3 70 1.3 70" transform="translate(-71.2,-57.5)" fill="none" stroke="#6c63ff" stroke-miterlimit="10"/><path d="M 918.4 495.1 c 0 6.6 -4.9 12 -4.9 12 s -4.9 -5.4 -4.9 -12 s 4.9 -12 4.9 -12 S 918.4 488.5 918.4 495.1 Z" transform="translate(-71.2,-57.5)" fill="#6c63ff"/><path d="M 922.3 505.8 s -17.5 34.4 -3.2 53.1 s -1.3 70 -1.3 70" transform="translate(-71.2,-57.5)" fill="none" stroke="#6c63ff" stroke-miterlimit="10"/><path d="M 917.1 495.1 c 0 6.6 4.9 12 4.9 12 s 4.9 -5.4 4.9 -12 s -4.9 -12 -4.9 -12 S 917.1 488.5 917.1 495.1 Z" transform="translate(-71.2,-57.5)" fill="#6c63ff"/><path d="M 917.1 495.1 c 0 6.6 4.9 12 4.9 12 s 4.9 -5.4 4.9 -12 s -4.9 -12 -4.9 -12 S 917.1 488.5 917.1 495.1 Z" transform="translate(-71.2,-57.5)" opacity="0.1"/><path d="M 929.5 505.8 s 17.5 34.4 3.2 53.1 s 1.3 70 1.3 70" transform="translate(-71.2,-57.5)" fill="none" stroke="#6c63ff" stroke-miterlimit="10"/><path d="M 934.6 495.1 c 0 6.6 -4.9 12 -4.9 12 s -4.9 -5.4 -4.9 -12 s 4.9 -12 4.9 -12 S 934.6 488.5 934.6 495.1 Z" transform="translate(-71.2,-57.5)" fill="#6c63ff"/><path d="M 931.9 522.7 c -4.6 4.8 -11.8 5.3 -11.8 5.3 s 0.2 -7.2 4.8 -12 s 11.8 -5.3 11.8 -5.3 S 936.5 517.9 931.9 522.7 Z" transform="translate(-71.2,-57.5)" fill="#6c63ff"/><path d="M 932.4 546.4 c -4.6 4.8 -11.8 5.3 -11.8 5.3 s 0.2 -7.2 4.8 -12 s 11.8 -5.3 11.8 -5.3 S 937 541.6 932.4 546.4 Z" transform="translate(-71.2,-57.5)" fill="#6c63ff"/><path d="M 907.5 559.4 c 4.3 5 4.2 12.2 4.2 12.2 s -7.2 -0.9 -11.5 -5.9 s -4.2 -12.2 -4.2 -12.2 S 903.1 554.4 907.5 559.4 Z" transform="translate(-71.2,-57.5)" fill="#6c63ff"/><path d="M 911.5 508.9 c 5.5 3.7 7.3 10.7 7.3 10.7 s -7.2 1.1 -12.7 -2.6 s -7.3 -10.7 -7.3 -10.7 S 906 505.2 911.5 508.9 Z" transform="translate(-71.2,-57.5)" fill="#6c63ff"/><path d="M 911.5 508.9 c 5.5 3.7 7.3 10.7 7.3 10.7 s -7.2 1.1 -12.7 -2.6 s -7.3 -10.7 -7.3 -10.7 S 906 505.2 911.5 508.9 Z" transform="translate(-71.2,-57.5)" opacity="0.1"/><path d="M 938.5 505.8 S 921 540.2 935.3 559 s -1.3 70 -1.3 70" transform="translate(-71.2,-57.5)" fill="none" stroke="#6c63ff" stroke-miterlimit="10"/><path d="M 933.3 495.1 c 0 6.6 4.9 12 4.9 12 s 4.9 -5.4 4.9 -12 s -4.9 -12 -4.9 -12 S 933.3 488.5 933.3 495.1 Z" transform="translate(-71.2,-57.5)" fill="#6c63ff"/><path d="M 933.3 495.1 c 0 6.6 4.9 12 4.9 12 s 4.9 -5.4 4.9 -12 s -4.9 -12 -4.9 -12 S 933.3 488.5 933.3 495.1 Z" transform="translate(-71.2,-57.5)" opacity="0.1"/><path d="M 934.7 523.2 c -4.7 4.7 -5 12 -5 12 s 7.2 -0.4 11.9 -5.1 s 5 -12 5 -12 S 939.4 518.5 934.7 523.2 Z" transform="translate(-71.2,-57.5)" fill="#6c63ff"/><path d="M 934.7 523.2 c -4.7 4.7 -5 12 -5 12 s 7.2 -0.4 11.9 -5.1 s 5 -12 5 -12 S 939.4 518.5 934.7 523.2 Z" transform="translate(-71.2,-57.5)" opacity="0.1"/><path d="M 943.9 556 c -4.7 4.7 -5 12 -5 12 s 7.2 -0.4 11.9 -5.1 s 5 -12 5 -12 S 948.5 551.3 943.9 556 Z" transform="translate(-71.2,-57.5)" fill="#6c63ff"/><path d="M 930.4 548.8 s 10.5 -16.6 25.3 -17" transform="translate(-71.2,-57.5)" fill="none" stroke="#6c63ff" stroke-miterlimit="10"/><path d="M 922.2 538.7 s -10.5 -16.6 -25.3 -17" transform="translate(-71.2,-57.5)" fill="none" stroke="#6c63ff" stroke-miterlimit="10"/><path d="M 920.9 562.4 s 10.5 -16.6 25.3 -17" transform="translate(-71.2,-57.5)" fill="none" stroke="#6c63ff" stroke-miterlimit="10"/><circle cx="884.1" cy="474.2" r="2.7" fill="#6c63ff"/><circle cx="826" cy="464.4" r="2.7" fill="#6c63ff"/><path d="M 928.6 567.9 s -10.5 -16.6 -25.3 -17" transform="translate(-71.2,-57.5)" fill="none" stroke="#6c63ff" stroke-miterlimit="10"/><circle cx="832.4" cy="493.5" r="2.7" fill="#6c63ff"/><circle cx="875.2" cy="488.1" r="2.7" fill="#6c63ff"/><path d="M 986.8 609 s -25.4 -5.1 -32.1 -11.8 S 917.5 578.6 914.1 587 s -45.7 37.2 -16.9 42.3 s 67.7 6.8 76.2 3.4 S 986.8 609 986.8 609 Z" transform="translate(-71.2,-57.5)" fill="#a8a8a8"/><path d="M 897.1 626.2 c 28.8 5.1 67.7 6.8 76.2 3.4 c 6.4 -2.6 10.9 -15 12.7 -20.7 l 0.8 0.2 s -5.1 20.3 -13.5 23.7 s -47.4 1.7 -76.2 -3.4 c -8.3 -1.5 -10.7 -4.9 -9.8 -9.3 C 888.1 622.9 891 625.1 897.1 626.2 Z" transform="translate(-71.2,-57.5)" opacity="0.2"/><path d="M 138.4 645.7 s 8.4 11 -3.9 27.5 S 112.2 703.7 116.3 714 c 0 0 18.5 -30.7 33.5 -31.2 S 154.9 664.1 138.4 645.7 Z" transform="translate(-71.2,-57.5)" fill="#6c63ff"/><path d="M 138.4 645.7 a 13.6 13.6 0 0 1 1.7 3.4 c 14.7 17.2 22.5 33.3 8.4 33.7 c -13.1 0.4 -28.9 23.9 -32.7 29.8 a 12.7 12.7 0 0 0 0.5 1.4 s 18.5 -30.7 33.5 -31.2 S 154.9 664.1 138.4 645.7 Z" transform="translate(-71.2,-57.5)" opacity="0.1"/><path d="M 154 659.6 c 0 3.9 -0.4 7 -1 7 s -1 -3.1 -1 -7 s 0.5 -2 1.1 -2 S 154 655.8 154 659.6 Z" transform="translate(-71.2,-57.5)" fill="#ffd037"/><path d="M 159.3 664.2 c -3.4 1.9 -6.3 3 -6.6 2.5 s 2.3 -2.4 5.7 -4.2 s 2 -0.5 2.3 0 S 162.7 662.4 159.3 664.2 Z" transform="translate(-71.2,-57.5)" fill="#ffd037"/><path d="M 94.1 645.7 s -8.4 11 3.9 27.5 s 22.4 30.5 18.3 40.8 c 0 0 -18.5 -30.7 -33.5 -31.2 S 77.6 664.1 94.1 645.7 Z" transform="translate(-71.2,-57.5)" fill="#6c63ff"/><path d="M 94.1 645.7 a 13.6 13.6 0 0 0 -1.7 3.4 C 77.8 666.3 69.9 682.4 84 682.8 c 13.1 0.4 28.9 23.9 32.7 29.8 a 12.7 12.7 0 0 1 -0.5 1.4 s -18.5 -30.7 -33.5 -31.2 S 77.6 664.1 94.1 645.7 Z" transform="translate(-71.2,-57.5)" opacity="0.1"/><path d="M 78.6 659.6 c 0 3.9 0.4 7 1 7 s 1 -3.1 1 -7 s -0.5 -2 -1.1 -2 S 78.6 655.8 78.6 659.6 Z" transform="translate(-71.2,-57.5)" fill="#ffd037"/><path d="M 73.2 664.2 c 3.4 1.9 6.3 3 6.6 2.5 s -2.3 -2.4 -5.7 -4.2 s -2 -0.5 -2.3 0 S 69.8 662.4 73.2 664.2 Z" transform="translate(-71.2,-57.5)" fill="#ffd037"/><path d="M 81.2 712.5 s 23.4 -0.7 30.5 -5.8 s 36 -11 37.8 -3 s 35.2 40.1 8.8 40.3 S 96.8 740 89.8 735.7 S 81.2 712.5 81.2 712.5 Z" transform="translate(-71.2,-57.5)" fill="#a8a8a8"/><path d="M 158.7 741.4 c -26.4 0.2 -61.5 -4.1 -68.5 -8.4 c -5.4 -3.3 -7.5 -15 -8.2 -20.4 l -0.8 0 s 1.5 18.9 8.5 23.2 s 42.1 8.6 68.5 8.4 c 7.6 -0.1 10.3 -2.8 10.1 -6.8 C 167.3 739.8 164.4 741.3 158.7 741.4 Z" transform="translate(-71.2,-57.5)" opacity="0.2"/><path d="M 753.3 561.4 a 121.9 121.9 0 0 0 -30.7 3.9 l -36.9 -113.8 l -0.5 -1.5 l 3.1 -0.9 c 7.4 -16.3 -12.3 -18.7 -12.3 -18.7 l -1.7 0.6 c -10.4 -3 -28.5 -4.6 -47.3 -5.3 V 402.9 a 105.6 105.6 0 0 1 6.7 -36.5 c 0.5 -1.4 1 -2.8 1.4 -4 c 0.1 -0.3 0.2 -0.5 0.2 -0.8 l 0.1 -0.5 c 0.1 -0.3 0.2 -0.7 0.3 -1 s 0.1 -0.5 0.2 -0.7 s 0.1 -0.5 0.2 -0.7 l 0.1 -0.3 c 0.1 -0.3 0.1 -0.7 0.2 -1 c 0 -0.1 0.1 -0.3 0.1 -0.4 s 0.1 -0.6 0.2 -0.8 s 0.1 -0.4 0.1 -0.6 s 0.1 -0.4 0.1 -0.6 s 0 -0.3 0.1 -0.4 s 0.1 -0.5 0.1 -0.7 l 0 -0.2 c 0 -0.3 0.1 -0.6 0.1 -0.9 s 0 -0.3 0 -0.4 s 0 -0.4 0 -0.6 s 0 -0.2 0 -0.3 s 0 -0.4 0 -0.6 s 0 -0.4 0 -0.6 s 0 -0.2 0 -0.2 s 0 -0.3 0 -0.5 s 0 -0.2 0 -0.3 s 0 -0.2 0 -0.4 s 0 -0.3 0 -0.4 s 0 -0.2 0 -0.4 s 0 -0.2 0 -0.3 a 68 68 0 0 1 -0.2 -11.6 l 1.4 -17.5 a 33.9 33.9 0 0 0 11.3 -6 s 0.9 -26.1 3.6 -46.8 a 77 77 0 0 0 -26.8 -69.2 c -1.8 -1.5 -3.7 -2.9 -5.6 -4.3 a 34.9 34.9 0 0 0 0.8 -4.3 a 25.7 25.7 0 0 1 3.2 -4.6 c 1.7 -1.7 4 -2.6 5.9 -4 c 4.2 -3.1 6 -8.2 7.2 -13.1 c 2.5 -10 3.2 -20.9 -1 -30.4 s -14.3 -17.3 -25.3 -16.8 c -3.4 0.1 -6.7 1 -10 1.4 c -8.8 0.9 -17.5 -2 -26.3 -2.5 a 15.1 15.1 0 0 0 -7.5 1 a 13.7 13.7 0 0 0 -4.5 4 a 42.6 42.6 0 0 0 -8.1 17.8 c -1.1 4.9 -1.1 9.3 -7.1 10 c -6.8 0.8 -28.6 -3.7 -24 10.7 c 2.2 6.8 12.7 7 18.1 12 c 2.8 2.6 4.1 6.4 7.2 8.8 l 0.1 0.1 c -14 0.2 -37.1 5.8 -50.7 36.7 c -20.5 46.8 -32.9 62 -49.3 74.2 c -15.6 11.6 -22.9 49 -23.6 52.6 c -4.3 10.9 -6.7 31 7.1 64.3 c 11.7 28.3 21.9 47.5 29.1 61.9 l -1.4 -0.1 a 80.6 80.6 0 0 1 -8.9 -1.2 c -11.6 -2.2 -40.8 -6.8 -48.7 1 c -9.9 9.8 -6.6 26.9 19.7 29.3 a 149.7 149.7 0 0 0 18.1 0.4 v 42.9 l -0.6 0.3 l 0 0 c -5.2 3.1 -10.1 5.8 -13.4 7.6 l -1.2 0.7 a 28 28 0 0 1 -2.4 -5 L 396 565.8 L 409.5 577 l -13.7 14.2 c -0.4 -0.4 -0.8 -0.8 -1.3 -1.1 a 121.1 121.1 0 0 0 -79 -29.1 c -66.8 0 -120.8 53.5 -120.8 119.6 s 54.1 119.6 120.8 119.6 c 59.8 0 109.4 -43 119.1 -99.4 c 23 1.7 44.4 2.2 58.4 0.2 v 13.8 h 61.6 V 698.1 l 1.5 -0.1 c 27.7 -2 13.3 -14.2 13.3 -14.2 c -6.4 0 -13.4 -3.5 -18.3 -6.6 c -1.7 -1.1 -3.5 -2.1 -5.3 -3 a 25.8 25.8 0 0 0 -1.4 -17.8 l 140.6 -145 l 21.5 59.4 l -1.4 0.6 c -42.8 18.4 -72.7 60.6 -72.7 109.7 c 0 66.1 54.1 119.6 120.8 119.6 S 874.1 747 874.1 681 S 820 561.4 753.3 561.4 Z m 6.4 209.3 l -5 -77.2 a 13.2 13.2 0 0 0 2.7 -0.7 l 41.3 65.9 A 91.4 91.4 0 0 1 759.7 770.6 Z m -80.6 -36.9 l 63.3 -45.4 l 0.1 0.2 l -25.9 74.9 A 91.4 91.4 0 0 1 679.1 733.7 Z m 116.6 -132.9 L 761 669.4 a 13.2 13.2 0 0 0 -5.8 -3.1 l -0.8 -2.6 l 2.4 -73.4 A 91.5 91.5 0 0 1 795.7 600.8 Z M 752.6 658 l -21.1 -65.2 a 92.4 92.4 0 0 1 21.4 -2.5 l 1.9 0 Z M 715 598.4 c 0.5 -0.2 1 -0.4 1.4 -0.6 L 742.5 670 A 13 13 0 0 0 740 673.6 l -66.9 -37.1 A 90.4 90.4 0 0 1 681.8 624 l 7.5 -8.1 A 91.5 91.5 0 0 1 715 598.4 Z m -42.8 39.9 l 67.1 37.3 a 12.9 12.9 0 0 0 -0.5 3.4 c 0 0.2 0 0.3 0 0.5 l -77.3 -1.4 A 89.1 89.1 0 0 1 672.2 638.3 Z m 93.7 40.9 L 840 653.6 a 89.7 89.7 0 0 1 -10.1 75.3 l -65.9 -41.5 a 12.8 12.8 0 0 0 2 -6.8 A 13 13 0 0 0 765.9 679.2 Z m 73.4 -27.5 l -73.8 25.5 a 27 27 0 0 0 -3 -6.1 l 35 -69.3 A 90.8 90.8 0 0 1 839.4 651.7 Z M 665.6 457.4 l 5.2 14.3 L 581.3 499.3 l -0.9 -18.5 l 51 -15 a 11.2 11.2 0 0 1 -0.2 3.4 a 30.5 30.5 0 0 0 3.5 -4.4 l 30.4 -8.9 Z M 321.9 770.2 l -5 -77 a 13.3 13.3 0 0 0 3 -0.4 l 41 65.5 A 91.4 91.4 0 0 1 321.9 770.2 Z m -80.6 -36.9 L 304.6 688 l 0.1 0.2 L 278.8 763 A 91.4 91.4 0 0 1 241.3 733.3 Z m -17.5 -55.7 a 89.1 89.1 0 0 1 10.6 -39.8 l 68.3 37.9 A 12.8 12.8 0 0 0 302 679 Z m 134.1 -77.3 L 326.3 663 l -4.8 5 a 13.2 13.2 0 0 0 -4.7 -0.9 h -0.2 L 319 589.9 A 91.4 91.4 0 0 1 357.9 600.4 Z m 30.3 25.7 a 89.6 89.6 0 0 1 13.4 25.2 l -66.5 22.9 Z m -57 51.6 l 71 -24.5 q 1 3.3 1.8 6.7 c 0.1 0.5 0.2 1 0.3 1.6 c -31.9 6.6 -61.7 13.9 -74.1 17.1 Z m -16.8 -10.5 a 13.2 13.2 0 0 0 -5.7 1.5 L 281.9 596 a 91.8 91.8 0 0 1 33.2 -6.2 c 0.6 0 1.3 0 1.9 0 Z M 307 669.9 a 13.1 13.1 0 0 0 -3.5 4 L 235.4 636.1 A 90.4 90.4 0 0 1 244 623.6 l 7.5 -8.1 A 91.5 91.5 0 0 1 280 596.7 Z M 404.5 698 a 89.2 89.2 0 0 1 -12.4 30.5 l -64.7 -40.8 C 340.7 689.8 371.7 694.5 404.5 698 Z m 28.9 -43.8 a 118.6 118.6 0 0 0 -23.3 -48 l 3.2 -2.9 l 27.6 26.9 v 24.3 q -3.5 0.6 -7.1 1.3 C 433.6 655.3 433.5 654.7 433.4 654.2 Z m 7.5 -51.1 l -0.6 -0.6 l 0.6 0.5 Z m 21.4 -35.2 l 0.1 -0.1 l 1.5 -1 l 0.7 -0.5 l 0.7 -0.5 l 0.8 -0.6 l 0.8 -0.5 l 0.9 -0.6 l 0.8 -0.5 l 1.2 -0.7 l 0.7 -0.4 l 1.2 -0.8 A 48.3 48.3 0 0 0 475.1 575 l 0.4 35.8 a 67.8 67.8 0 0 1 -13.2 -22.3 Z m 114.6 -157 c 2.4 2.2 4 3.5 4 3.5 S 586 419 591.9 425 c -5.2 0 -10.1 0 -14.3 0.1 Z m 1.8 35.6 c 8.3 0.3 19.2 0.6 30.8 0.7 c 0.1 0.3 0.2 0.5 0.2 0.7 a 54.6 54.6 0 0 1 6.9 2.7 l -37.1 12.6 Z m 9.4 -65.7 s -7.6 -20 -16.9 -35.1 c 4.9 -14.4 14.1 -29.6 31.1 -36.3 l -0.1 1.4 l -0.1 0.7 c -0.5 6.3 -1.2 14 -1.7 21.9 l 0 0.5 q -0.1 1.4 -0.2 2.8 l 0 0.5 l -0.1 1.2 l -0.1 1.1 l -0.1 1 q -0.1 1 -0.1 2 l 0 0.6 q 0 0.9 -0.1 1.7 l 0 0.7 q -0.1 1 -0.1 2.1 v 0.1 q -0.1 1.1 -0.1 2.3 v 0.3 q 0 1 -0.1 2.1 v 0.2 q -0.1 2.3 -0.1 4.5 v 0.2 c 0 1.4 -0.1 2.9 -0.1 4.2 v 0.1 c 0 1.4 0 2.7 0 3.9 v 0 q 0 0.9 0 1.7 v 0.1 c 0 1.1 0.1 2.2 0.1 3.1 v 0.2 c 0.1 0.9 0.1 1.8 0.2 2.6 l 0 0.2 q 0.1 0.5 0.1 0.9 l 0 0.2 c 0.1 0.3 0.1 0.6 0.2 0.9 l 0 0.1 c 0.1 0.2 0.1 0.4 0.2 0.6 l 0.1 0.2 a 4.7 4.7 0 0 0 0.2 0.6 c 1.7 3.4 2.5 13.8 2.9 24.8 C 594.5 390.1 588 380.8 588 380.8 Z M 462.2 649.6 V 620.7 l 13.4 11.1 h 0 l 0.2 17.7 c -4.3 0.4 -8.9 1 -13.6 1.6 Z m 0 -149.7 c 3.5 -0.4 6.9 -1 10.2 -1.5 a 30.9 30.9 0 0 1 0.6 7.5 v 15.3 l 0.7 0 a 134.7 134.7 0 0 0 -11.5 8.1 V 499.9 Z M 375.3 612.3 L 331.1 658 l 28.6 -56.6 A 91.4 91.4 0 0 1 374 611.2 C 374.4 611.6 374.9 612 375.3 612.3 Z M 223.8 680.1 c 0 -0.1 0 -0.3 0 -0.5 L 302 681.1 a 12.8 12.8 0 0 0 1.5 5.2 l -63.3 45.4 A 89.3 89.3 0 0 1 223.8 680.1 Z m 91.3 90.3 a 91.8 91.8 0 0 1 -34.4 -6.7 l 25.6 -74 a 13.2 13.2 0 0 0 8.6 3.4 l 5 77.2 C 318.3 770.4 316.7 770.5 315.1 770.5 Z m 47.6 -13.3 L 321.9 692.1 a 13.2 13.2 0 0 0 4.2 -2.8 L 391 730.2 A 91.3 91.3 0 0 1 362.7 757.2 Z M 527.9 642.1 a 26.6 26.6 0 0 0 -7.3 -1 l -0.8 0 l -0.8 0 A 26.4 26.4 0 0 0 507 643.9 c -1.7 -10.7 -2.6 -24.4 1.3 -35 a 113.1 113.1 0 0 0 5.2 -19.6 l 8.3 -47.2 l 155.4 -52.7 l 1.9 5.3 Z m 133.7 38.5 c 0 -0.1 0 -0.3 0 -0.5 l 77.5 1.4 a 38.1 38.1 0 0 0 2.1 5.2 l -63.3 45.4 A 89.3 89.3 0 0 1 661.6 680.5 Z m 91.3 90.3 a 91.8 91.8 0 0 1 -34.4 -6.7 l 25.6 -74 a 13.2 13.2 0 0 0 8.6 3.4 l 5 77.2 Q 755.3 770.9 752.9 770.9 Z m 47.6 -13.3 l -41.2 -65.7 a 13.2 13.2 0 0 0 3.5 -2.9 l 66 41.6 A 91.3 91.3 0 0 1 800.5 757.6 Z" transform="translate(-71.2,-57.5)" fill="url(#3bf67c77-6062-4f06-9d7e-238f26074c0d)"/><path d="M 752.6 774.9 L 746.3 677 l -0.1 -0.2 l -6.3 2.2 L 710.8 763.8 L 664.5 731 l 73.7 -53.4 l 0.1 -0.2 l 0.4 -0.1 l 4.8 -3.5 l -77.2 -43.3 l -18.9 20.8 l 3 19.5 l 88.8 1.6 l 0 2 l -90.5 -1.6 l -3.4 -22.1 l 25.9 -28.4 L 709.8 577 l 0.7 1.9 l 8.2 -9 l 30.5 5.5 l 0 -1.2 l 2 0.1 l 0 1.5 l 45.4 8.1 l -42.3 84.7 l -6.2 4.5 l 0 0.5 l 0 0.6 l 97.8 -34.1 l -11.6 91.2 l -83 -52.9 l -2.9 -1.6 l 48.9 78.9 Z m -4 -94.3 l 5.8 91.4 l 40 -17.4 Z M 668 731 l 41.8 29.6 l 27.3 -79.7 Z m 82.3 -55.7 l 2.1 1.2 l 80.3 51.2 l 10.8 -84.9 Z m -7.1 -7.2 l 2.5 4 l 0.4 -0.3 l 3 -94.5 L 719.4 572 l -8.2 9 Z m -75.4 -39 l 74.8 42 l -1.3 -2.1 l -31.6 -86.3 l -37.2 40.9 Z m 83.4 -51.4 l -3 92.7 l 4.5 -3.3 l 40.9 -81.8 Z" transform="translate(-71.2,-57.5)" fill="#535461"/><path d="M 326.4 774.5 l -6.3 -97.9 l -0.1 -0.2 l -6.3 2.2 L 284.6 763.4 l -46.3 -32.8 L 312 677.2 l 0.1 -0.2 l 0.4 -0.1 l 4.8 -3.5 L 240 630.1 l -18.9 20.8 l 3 19.5 L 312.9 672 l 0 2 l -90.5 -1.6 L 219 650.2 l 25.9 -28.5 l 38.8 -45.2 l 0.7 1.9 l 8.2 -9 L 323 574.9 l 0 -1.2 l 2 0.1 l 0 1.5 l 45.4 8.1 L 328.1 668 l -6.2 4.5 l 0 0.5 l 0 0.6 l 97.8 -34.1 l -11.6 91.2 l -83 -52.9 l -2.9 -1.6 l 48.9 78.9 Z m -4 -94.3 l 5.8 91.4 l 40 -17.4 Z m -80.6 50.4 l 41.8 29.6 l 27.3 -79.7 Z m 82.3 -55.7 l 2.1 1.2 l 80.3 51.2 l 10.8 -84.9 Z m -7.1 -7.2 l 2.5 4 l 0.4 -0.3 l 3 -94.5 l -29.7 -5.3 l -8.2 9 Z M 241.6 628.7 l 74.8 42 l -1.3 -2.1 l -31.6 -86.3 l -37.2 40.9 Z M 325 577.3 L 322 670 l 4.5 -3.3 l 40.9 -81.8 Z" transform="matrix(1,0,0,1,-71.2,-57.5)" fill="#535461"/><rect x="400.1" y="588" width="60" height="19" transform="translate(472.5,-187.4) rotate(44.6)" fill="#6c63ff"/><rect x="400.1" y="588" width="60" height="19" transform="translate(472.5,-187.4) rotate(44.6)" opacity="0.1"/><path d="M 425.6 549.5 S 450.4 536.4 460 528 a 130.4 130.4 0 0 1 18.5 -13.5 l 31.1 -18.9 l 65 -5 l 3 11 s 5 16 -45 30 s -75 36 -75 36 S 425.6 578.5 425.6 549.5 Z" transform="translate(-71.2,-57.5)" fill="#db8b8b"/><path d="M 460.3 565.4 c -1.8 1.4 -2.6 2.1 -2.6 2.1 s -32 11 -32 -18 c 0 0 1.6 -0.8 4 -2.2 a 27.7 27.7 0 0 0 23.6 13.2 h 3.4 Z" transform="translate(-71.2,-57.5)" opacity="0.1"/><path d="M 576.7 507.1 c -2.8 5.9 -12.4 15.6 -44.1 24.4 c -40.6 11.4 -64.7 28 -72.3 33.9 c -1.8 1.4 -2.6 2.1 -2.6 2.1 s -32 11 -32 -18 c 0 0 1.6 -0.8 4 -2.2 c 7.4 -4.1 23.2 -13 30.3 -19.4 a 130 130 0 0 1 18.5 -13.5 l 31.1 -18.9 l 11.6 -0.9 l 53.4 -4.1 l 3 11 S 578.3 503.6 576.7 507.1 Z" transform="translate(-71.2,-57.5)" opacity="0.05"/><path d="M 426.1 543 l -26.5 17.5 l 77.6 65 s 11.4 -7 5.4 -15 c 0 0 -20 -17 -21 -41 l -6 -8 h -3.4 A 27.7 27.7 0 0 1 426.1 543 Z" transform="translate(-71.2,-57.5)" fill="#abb1d1"/><path d="M 576.7 507.1 c -16 -7.7 -55.1 -8.6 -55.1 -8.6 l -0.4 -3.9 l 53.4 -4.1 l 3 11 S 578.3 503.6 576.7 507.1 Z" transform="translate(-71.2,-57.5)" opacity="0.1"/><path d="M 521.6 496.5 s 47 1 59 11 l -6 -121 h -65 Z" transform="translate(-71.2,-57.5)" fill="#abb1d1"/><path d="M 521.6 496 s 47 1 59 11 l -6 -121 h -65 Z" transform="translate(-71.2,-57.5)" opacity="0.05"/><path d="M 747.5 556.1 a 117.5 117.5 0 0 0 -31.4 4.2 a 115.6 115.6 0 0 0 -15.5 5.5 a 117.7 117.7 0 1 0 46.9 -9.7 Z m -0.4 206.1 a 88.9 88.9 0 0 1 -36.9 -169.7 a 87.8 87.8 0 0 1 14.6 -5.2 a 88.8 88.8 0 1 1 22.4 174.8 Z" transform="translate(-71.2,-57.5)" fill="#535461"/><path d="M 559.4 422.5 s 117.7 -4 120 11.2 s -117.7 8.8 -117.7 8.8 S 552.2 432.9 559.4 422.5 Z" transform="translate(-71.2,-57.5)" fill="#535461"/><path d="M 559.4 422.5 s 117.7 -4 120 11.2 s -117.7 8.8 -117.7 8.8 S 552.2 432.9 559.4 422.5 Z" transform="translate(-71.2,-57.5)" opacity="0.05"/><circle cx="409.8" cy="689.1" fill="none" stroke="#c1272d" stroke-miterlimit="10"/><rect x="372.2" y="425.8" width="20.8" height="180.9" fill="#6c63ff"/><path d="M 464.1 483.3 v 13.9 c -6.9 0.9 -14 1.5 -20.8 1.7 V 483.3 Z" transform="translate(-71.2,-57.5)" opacity="0.1"/><path d="M 462.6 468.3 a 77.7 77.7 0 0 1 -8.7 -1.2 c -11.3 -2.2 -39.7 -6.7 -47.4 1 c -9.6 9.6 -6.4 26.4 19.2 28.8 s 69.6 -4 78.4 -13.6 C 504.2 483.3 488.2 470.3 462.6 468.3 Z" transform="translate(-71.2,-57.5)" fill="#535461"/><polygon points="387.4,475.4 605.9,407.4 613.1,424.2 389,501 387.4,475.4" fill="#6c63ff"/><polygon points="452.2,582.6 609.9,427.4 618.7,440.2 468.2,597 452.2,582.6" fill="#6c63ff"/><path d="M 724.7 587.4 a 87.8 87.8 0 0 0 -14.6 5.2 l -9.6 -26.7 a 115.6 115.6 0 0 1 15.5 -5.5 Z" transform="translate(-71.2,-57.5)" opacity="0.1"/><polygon points="680.3,608.3 669.1,614.7 591,396.3 587.5,386.6 605.9,376.1 610.5,390.5 680.3,608.3" fill="#6c63ff"/><polygon points="610.5,390.5 591,396.3 587.5,386.6 605.9,376.1 610.5,390.5" opacity="0.1"/><path d="M 562.6 464.9 l 109.7 -37.6 s 19.2 2.4 12 18.4 L 573.8 478.5 S 557 480.1 562.6 464.9 Z" transform="translate(-71.2,-57.5)" fill="#535461"/><path d="M 436.1 647.5 C 432.1 629.6 423.9 613 412.4 598.9 C 408.1 593.6 403.3 588.8 398.2 584.3 C 357.6 549.3 298.5 546.1 254.4 576.6 C 210.3 607.1 192.4 663.5 210.8 713.8 C 229.3 764.2 279.4 795.7 332.7 790.5 C 386.1 785.3 429.2 744.6 437.5 691.7 C 438.5 685.6 438.9 679.5 438.9 673.4 C 438.9 664.7 438 656 436.1 647.5 Z M 320.9 761.8 C 283.5 761.8 250.2 738.4 237.5 703.2 C 224.8 668.1 235.5 628.8 264.2 604.9 C 292.9 581 333.5 577.6 365.7 596.4 C 398 615.2 415 652.3 408.3 689 C 400.5 731.2 363.8 761.8 320.9 761.8 Z" transform="matrix(1,0,0,1,-71.2,-57.5)" fill="#535461"/><path d="M 438.9 673.4 a 119.1 119.1 0 0 1 -1.4 18.3 C 427.9 691 418 690 408.3 689 a 89.6 89.6 0 0 0 -0.8 -35.9 c 9.5 -2 19.1 -3.9 28.6 -5.6 A 117.6 117.6 0 0 1 438.9 673.4 Z" transform="translate(-71.2,-57.5)" opacity="0.1"/><path d="M 464.1 642.9 v 21.3 H 443.3 v -18 C 450.5 644.9 457.5 643.8 464.1 642.9 Z" transform="translate(-71.2,-57.5)" opacity="0.1"/><path d="M 329.7 673 s 168.1 -44 181.7 -27.2 S 539.4 685 497 693 s -170.5 -13.6 -170.5 -13.6 Z" transform="translate(-71.2,-57.5)" fill="#6c63ff"/><path d="M 412.4 598.9 L 391 618.4 a 89 89 0 0 0 -12.8 -13.3 l 19.9 -20.8 A 118.8 118.8 0 0 1 412.4 598.9 Z" transform="translate(-71.2,-57.5)" opacity="0.1"/><polygon points="252.9,606.7 378.6,475.4 382.6,505.8 259.3,618.7 252.9,606.7" fill="#6c63ff"/><circle cx="251.3" cy="615.5" r="12.8" opacity="0.1"/><circle cx="249.7" cy="615.5" r="12.8" fill="#535461"/><circle cx="675.1" cy="614.3" r="12.8" opacity="0.1"/><circle cx="675.9" cy="615.9" r="12.8" fill="#535461"/><circle cx="448.2" cy="602.7" r="25.6" opacity="0.1"/><circle cx="449.8" cy="602.7" r="25.6" fill="#535461"/><rect x="521.5" y="653.6" width="13.6" height="47.5" rx="6.8" ry="6.8" transform="translate(-371.6,393.8) rotate(-36.8)" fill="#6c63ff"/><path d="M 636.6 304.5 l -2.4 30.1 a 67.6 67.6 0 0 0 0.1 11.4 c 0.3 3.4 0 9.3 -3.3 18.3 a 104.9 104.9 0 0 0 -6.5 35.9 V 434.5 l -23 -4 s 1 -48 -3 -56 s 3 -79 3 -79 Z" transform="translate(-71.2,-57.5)" fill="#db8b8b"/><path d="M 635.5 319.4 l -1.2 15.2 a 67.5 67.5 0 0 0 0.2 11.4 c 0.3 3.4 0 9.3 -3.3 18.3 a 104.9 104.9 0 0 0 -6.5 35.9 V 434.5 l -23 -4 s 1 -48 -3 -56 c -2.8 -5.7 -0.1 -42.9 1.7 -64.2 c 0.8 -8.8 1.3 -14.8 1.3 -14.8 l 35 9 Z" transform="translate(-71.2,-57.5)" opacity="0.05"/><path d="M 522.6 534.5 L 514 583.7 A 112.2 112.2 0 0 1 509 603 c -5.1 13.9 -1.8 33.3 0.6 43.9 c 1.1 4.7 2 7.6 2 7.6 l -26 14 l -8 -6 l 0 -4 l -1 -89 c -6 -14 -4 -35 0 -43 a 33.9 33.9 0 0 0 2.4 -8.2 c 2 -10.7 2.6 -25.8 2.6 -25.8 s 16 -27 35 -9 c 7 6.6 9.7 15.3 10.2 23.6 C 527.8 521.3 522.6 534.5 522.6 534.5 Z" transform="translate(-71.2,-57.5)" fill="#db8b8b"/><path d="M 526.9 507.1 c -13.9 8.2 -38 10.6 -47.8 11.2 c 2 -10.7 2.6 -25.8 2.6 -25.8 s 16 -27 35 -9 C 523.6 490.1 526.3 498.8 526.9 507.1 Z" transform="translate(-71.2,-57.5)" opacity="0.1"/><path d="M 560.6 482.5 a 183 183 0 0 0 -30 20 c -16 13 -56 14 -56 14 v -15 c 1 -18 -16 -38 -39 -94 c -14.7 -35.8 -10.6 -56 -5.8 -66 c 2.8 -5.7 5.8 -8 5.8 -8 l 125 24 l 4.5 13.4 l 9.5 28.6 s -35 2 -41 5 s -2 30 -2 30 C 525.6 462.5 560.6 482.5 560.6 482.5 Z" transform="translate(-71.2,-57.5)" fill="#abb1d1"/><path d="M 636.6 304.5 l -1.2 14.9 c -17.4 5 -29.8 -10.9 -29.8 -10.9 a 45.8 45.8 0 0 0 -5.3 1.8 c 0.8 -8.8 1.3 -14.8 1.3 -14.8 Z" transform="translate(-71.2,-57.5)" opacity="0.1"/><path d="M 565.1 370.9 c -0.5 4.7 -0.5 7.6 -0.5 7.6 s -23 19 -62 -10 s -74 -21 -74 -21 s 0.4 -2.3 1.2 -6 c 2.8 -5.7 5.8 -8 5.8 -8 l 125 24 Z" transform="translate(-71.2,-57.5)" opacity="0.1"/><path d="M 650.1 265.4 c -2.6 20.4 -3.5 46 -3.5 46 c -23 18 -41 -5 -41 -5 c -21.7 5.8 -31.9 24.8 -36.7 41.4 a 110.8 110.8 0 0 0 -4.3 27.6 s -6.1 5 -17.3 6 c -10.6 0.9 -25.8 -1.9 -44.7 -16 c -39 -29 -74 -21 -74 -21 s 7 -40 23 -52 s 28 -27 48 -73 s 61 -35 61 -35 s 2 -9 39 0 A 60.3 60.3 0 0 1 624 197.4 C 643.8 214 653.4 239.8 650.1 265.4 Z" transform="translate(-71.2,-57.5)" fill="#ffffff"/><path d="M 613 207 c -0.1 1.3 -0.2 2.8 -0.3 4.5 c -2 18 -4 16 -26 20 c -13.7 2.5 -20.8 -8.9 -24.2 -17.9 a 56.6 56.6 0 0 1 -2.8 -10.1 l 48 -8 S 613.4 193.8 613 207 Z" transform="translate(-71.2,-57.5)" fill="#db8b8b"/><path d="M 568.9 347.9 a 110.8 110.8 0 0 0 -4.3 27.6 s -6.1 5 -17.3 6 a 9.3 9.3 0 0 1 -0.7 -2 c -2 -9 -17 -25 -17 -25 c -10 -9 -12 -25 -12 -25 L 501.1 281 l -5.5 -4.5 s 23 -18 43 -3 s 14 47 14 47 l 4 11 C 560.8 335 565 341.2 568.9 347.9 Z" transform="translate(-71.2,-57.5)" opacity="0.05"/><path d="M 498.6 275.5 l 22 53 s 2 16 12 25 c 0 0 15 16 17 25 s 30 33 30 33 s 26 24 28 33 c 0 0 24 7 21 21 c 0 0 18 -18 0 -35 s -42 -52 -42 -52 s -14 -37 -27 -48 l -4 -11 s 6 -32 -14 -47 S 498.6 275.5 498.6 275.5 Z" transform="translate(-71.2,-57.5)" fill="#db8b8b"/><path d="M 511.6 654.5 l -26 14 l -8 -6 l 0 -4 a 60.6 60.6 0 0 0 25.6 -7.7 c 2.4 -1.4 4.7 -2.7 6.5 -3.9 C 510.7 651.5 511.6 654.5 511.6 654.5 Z" transform="translate(-71.2,-57.5)" opacity="0.1"/><path d="M 541.6 233.5 l 14 55 s -43 7 -52 0 s -26 -9 -26 -9 s 18 -52 28 -58 S 541.6 233.5 541.6 233.5 Z" transform="translate(-71.2,-57.5)" opacity="0.1"/><path d="M 542.6 232.5 l 14 55 s -43 7 -52 0 s -26 -9 -26 -9 s 18 -52 28 -58 S 542.6 232.5 542.6 232.5 Z" transform="matrix(1,0,0,1,-71.2,-57.5)" fill="#ffffff"/><path d="M 613 206 a 35 35 0 0 1 -50.5 6.5 a 56.6 56.6 0 0 1 -2.8 -10.1 l 48 -8 S 613.4 192.8 613 206 Z" transform="translate(-71.2,-57.5)" opacity="0.1"/><path d="M 619.6 184.5 a 35 35 0 0 1 -70 0 c 0 -0.6 0 -1.2 0 -1.7 a 35 35 0 0 1 70 1.7 Z" transform="translate(-71.2,-57.5)" fill="#db8b8b"/><path d="M 619.6 184.5 a 34.9 34.9 0 0 1 -1.3 9.5 a 13.5 13.5 0 0 1 -8.1 -0.7 c -3.7 -1.5 -7 -4 -10.5 -5.8 c -10.1 -5.1 -22.1 -4.1 -33.3 -2.4 c -5.6 0.8 -11.9 1.6 -16.2 -1.9 a 5.1 5.1 0 0 1 -0.4 -0.4 a 35 35 0 0 1 70 1.7 Z" transform="translate(-71.2,-57.5)" opacity="0.1"/><path d="M 525.3 159.8 c 2.1 6.7 12.4 6.9 17.6 11.8 c 2.7 2.6 4 6.3 7 8.6 c 4.2 3.2 10.2 2.5 15.5 1.7 c 10.7 -1.5 22.2 -2.4 31.8 2.2 c 3.4 1.6 6.5 3.9 10.1 5.2 s 8 1.5 10.9 -0.9 c 2.3 -1.9 3.2 -5 5.3 -7.1 c 1.6 -1.6 3.9 -2.6 5.8 -4 c 4.1 -3.1 5.8 -8.1 7 -12.9 c 2.4 -9.9 3.1 -20.5 -1 -29.9 s -13.9 -17 -24.7 -16.5 c -3.3 0.2 -6.5 1 -9.8 1.4 c -8.5 0.9 -17 -2 -25.6 -2.5 C 572.7 116.7 570.2 117.1 567.9 118 C 566.1 119 564.6 120.4 563.4 122 C 559.5 127.1 556.8 133.1 555.6 139.5 c -1 4.8 -1 9.1 -6.9 9.9 C 542 150.2 520.8 145.7 525.3 159.8 Z" transform="matrix(1,0,0,1,-71.2,-57.5)" fill="#472727"/><path d="M 456.1 292 s 26 7 34 25 s 29.6 21.3 29.6 21.3" transform="translate(-71.2,-57.5)" opacity="0.05"/><rect x="423" y="630.5" width="60" height="19" fill="#6c63ff"/><rect x="423" y="630.5" width="60" height="19" opacity="0.1"/><path d="M 503.1 652.7 c 5.4 -3 10.1 -6 10.5 -7.2 c 0 0 13.6 14.3 25.6 18.7 A 60.4 60.4 0 0 1 550.8 670 c 4.8 3 11.6 6.5 17.8 6.5 c 0 0 14 12 -13 14 s -90 -5 -90 -5 l 4 -25 h 0 A 60.8 60.8 0 0 0 503.1 652.7 Z" transform="translate(-71.2,-57.5)" fill="#abb1d1"/></svg>